<svg xmlns="http://www.w3.org/2000/svg" viewBox="0 0 1284.51 1267.83"><defs><style>.f097df24-44af-4a28-a103-85775b8104d8{fill:#fff;}</style></defs><g id="ae79d70c-75f4-4955-8d4e-7cc5f1c744c2" data-name="Layer 2"><g id="ebb17957-1b94-4a7a-a480-33692f4649e3" data-name="Isolation Mode"><path class="f097df24-44af-4a28-a103-85775b8104d8" d="M1224.76,894.9c8.88,19.26,39.74,56.8,26.79,96.26-15,45.64-63.24,51.67-63.24,73.95,0,11.08,6.77,55-.7,72.66-16.2,38.34-74.13,74.58-141.92,81.13-96.55,9.35-254,26.51-611.44-38.26h0c-2.7.22-12.94.67-45.81,1.24-20.47.35,11.15,84.21,11.15,84.21-60.7,1.13-146.27,1.62-232.43,1.74h0C61.6,1111.44,0,923,0,720.12q0-41.54,3.39-82.21c126.85.37,266.28.19,353.23-1.75,0,0-23.62,38.25,4.05,37.58,79.79-2,75.92-3.69,82.83-4.79,27.3-4.3,64.83-20.2,100.56-101.84,67.11-153.35,73.49-198.08,131-236.42,30-20,58.25-43.47,78.89-93.12,16.36-39.39,27.93-95.23,31.74-178.89.58-13,13.44-53.32,28.77-56.61C852.25-6,918.55,6,948.79,102.84c6.48,20.72,17.36,96-3.61,154-14.69,42.23-38.21,93.24-68.79,147.3-45.93,69.18,9,86.25,16.45,86.25H1176.7s31.76-3.55,59.25,15.69c26.72,18.69,49.2,59.72,48.51,90.45C1283.05,659,1231,680.81,1231,701.31c0,10.41,55,48.39,53.48,94.91C1283,841.35,1215.3,874.44,1224.76,894.9Z"/></g></g></svg>