<svg xmlns="http://www.w3.org/2000/svg" viewBox="0 0 1957.27 1960.63"><defs><style>.ebf312cc-55b4-451c-a25c-9017ac77e524{isolation:isolate;}.f999f890-69c0-4f64-bda1-16faf8a8d00e{fill:#009444;}.e401761d-ec0c-4ab2-8132-343fabab91cd{fill:#a7a9ac;mix-blend-mode:multiply;}</style></defs><g class="ebf312cc-55b4-451c-a25c-9017ac77e524"><g id="a82e26bf-5743-47aa-86c7-221cb068a6c2" data-name="Layer 2"><g id="bd766236-521e-4912-98cb-4c6450dd672e" data-name="Isolation Mode"><path class="f999f890-69c0-4f64-bda1-16faf8a8d00e" d="M1957.27,980.31c0,541.43-438.9,980.32-980.33,980.32q-27.13,0-53.91-1.47C606.83,1942,330.5,1775.05,163.78,1528v-474.6c0-27.69-166-128.22-163.76-155.33C41.8,395.16,463.22,0,976.94,0c516.38,0,939.51,399.24,977.54,905.88Q1957.24,942.74,1957.27,980.31Z"/><path class="e401761d-ec0c-4ab2-8132-343fabab91cd" d="M1957.27,980.31c0,541.43-438.9,980.32-980.33,980.32q-27.13,0-53.91-1.47L163.78,1528l575.07-494.23,186.6-739.29,1029,611.4Q1957.24,942.74,1957.27,980.31Z"/></g></g></g></svg>